<svg width="2000" height="601" viewBox="0 0 2000 601" fill="none" xmlns="http://www.w3.org/2000/svg">
    <defs>
        <linearGradient id="paint0_linear_146_156" x1="221.25" y1="300" x2="221.25" y2="29" gradientUnits="userSpaceOnUse">
            <stop stop-color="#11B06E"/>
            <stop offset="0.526042" stop-color="#3DE9A8"/>
        </linearGradient>
        <linearGradient id="paint1_linear_146_156" x1="128.25" y1="301" x2="128.25" y2="572" gradientUnits="userSpaceOnUse">
            <stop stop-color="#11B06E"/>
            <stop offset="0.526042" stop-color="#3DE9A8"/>
        </linearGradient>
    </defs>
    <path d="M118 29L324.5 300L173 256L118 29Z" fill="url(#paint0_linear_146_156)"/>
    <path d="M231.5 572L25 301L176.5 345L231.5 572Z" fill="url(#paint1_linear_146_156)"/>
    <path d="M173 255.5L324.5 299.5L177 345L25 301L173 255.5Z" fill="#3DE9A8"/>
    <path fill-rule="evenodd" clip-rule="evenodd" d="M380.706 154.588V197.088H457.313C529.858 197.088 533.885 197.181 533.257 198.838C532.892 199.801 497.229 264.713 454.004 343.088C410.78 421.463 375.229 485.925 375.001 486.338C374.774 486.751 441.44 487.088 523.147 487.088H671.706V444.594V402.1L594.752 401.844L517.798 401.588L589.822 271.088C629.436 199.313 665.383 134.176 669.706 126.338L677.568 112.088H529.137H380.706V154.588ZM707.706 299.588V487.088H754.206H800.706V299.588V112.088H754.206H707.706V299.588ZM846.706 299.588V487.088H893.706H940.706V431.088V375.088L966.456 375.087C1003.66 375.086 1019.32 373.331 1039.71 366.88C1059.04 360.761 1075.9 350.729 1089.77 337.088C1107.65 319.504 1118.09 299.825 1123.87 272.776C1126.77 259.222 1127.04 230.286 1124.39 216.588C1112.93 157.318 1072.38 121.049 1008.73 113.141C1003.46 112.486 971.204 112.088 923.482 112.088H846.706V299.588ZM1151.71 299.544V487.088H1198.21H1244.71V431.211V375.335L1277.96 374.831C1305.59 374.411 1313.15 373.977 1322.71 372.263C1367.45 364.236 1401.47 339.612 1418.75 302.74C1427.82 283.377 1431.2 264.658 1430.4 238.113C1429.8 217.898 1428.36 209.63 1422.67 193.588C1418.75 182.537 1416.91 178.838 1410.16 168.423C1395.55 145.904 1372.3 128.765 1344.21 119.795C1321.6 112.578 1323.39 112.698 1232.96 112.33L1151.71 112V299.544ZM1460.71 299.588V487.088H1507.71H1554.71V299.588V112.088H1507.71H1460.71V299.588ZM1600.71 299.588V487.088H1647.21H1693.71V375.588C1693.71 298.716 1694.03 264.088 1694.75 264.088C1695.95 264.088 1693.52 260.376 1776.48 389.088L1839.32 486.588L1886.01 486.848L1932.71 487.108V299.598V112.088H1886.21H1839.71V223.671C1839.71 312.483 1839.45 335.174 1838.46 334.857C1837.77 334.639 1808.78 290.389 1774.04 236.524C1739.3 182.659 1707.02 132.625 1702.3 125.338L1693.72 112.088H1647.21H1600.71V299.588ZM1000.21 199.507C1009.84 202.144 1016.2 205.751 1021.57 211.636C1028.81 219.556 1030.95 225.793 1031.49 240.55C1032.16 258.838 1029.23 268.493 1020.54 276.661C1014.94 281.923 1012.3 283.506 1004.56 286.244C998.659 288.332 996.154 288.52 969.456 288.881L940.706 289.27V243.055V196.839L967.456 197.352C987.881 197.744 995.625 198.254 1000.21 199.507ZM1304.61 199.509C1327.37 205.295 1337.67 220.708 1336.42 247.088C1335.41 268.355 1327.04 280.252 1308.86 286.27C1302.76 288.286 1299.79 288.504 1273.46 288.86L1244.71 289.249V243.052V196.856L1271.46 197.368C1291.5 197.751 1299.81 198.288 1304.61 199.509Z" fill="black"/>
</svg>